<svg id="_x31__px" height="512" viewBox="0 0 24 24" width="512" xmlns="http://www.w3.org/2000/svg"><path d="m18.5 24c-.128 0-.256-.049-.354-.146l-5-5c-.143-.143-.186-.358-.108-.545s.26-.309.462-.309h2.5v-5c0-.551.448-1 1-1h3c.552 0 1 .449 1 1v5h2.5c.202 0 .385.122.462.309s.034.402-.108.545l-5 5c-.098.097-.226.146-.354.146zm-3.793-5 3.793 3.793 3.793-3.793h-1.793c-.276 0-.5-.224-.5-.5v-5.5h-3v5.5c0 .276-.224.5-.5.5z"/><path d="m11.5 21h-9c-1.379 0-2.5-1.122-2.5-2.5v-13c0-1.378 1.121-2.5 2.5-2.5h19c1.379 0 2.5 1.122 2.5 2.5v10c0 .276-.224.5-.5.5s-.5-.224-.5-.5v-10c0-.827-.673-1.5-1.5-1.5h-19c-.827 0-1.5.673-1.5 1.5v13c0 .827.673 1.5 1.5 1.5h9c.276 0 .5.224.5.5s-.224.5-.5.5z"/><path d="m7.5 16h-7c-.276 0-.5-.224-.5-.5v-7c0-.276.224-.5.5-.5h7c1.379 0 2.5 1.122 2.5 2.5v3c0 1.378-1.121 2.5-2.5 2.5zm-6.5-1h6.5c.827 0 1.5-.673 1.5-1.5v-3c0-.827-.673-1.5-1.5-1.5h-6.5z"/><path d="m5 14c-1.103 0-2-.897-2-2s.897-2 2-2 2 .897 2 2-.897 2-2 2zm0-3c-.552 0-1 .449-1 1s.448 1 1 1 1-.449 1-1-.448-1-1-1z"/></svg>